HIERARCHY
ROOT Hips
{
	OFFSET 0.000000 0.000000 0.000000
	CHANNELS 6 Xposition Yposition Zposition Zrotation Yrotation Xrotation 
	JOINT LHipJoint
	{
		OFFSET 0.000000 0.000000 0.000000
		CHANNELS 3 Zrotation Yrotation Xrotation
		JOINT LeftUpLeg
		{
			OFFSET 1.363060 -1.794630 0.839290
			CHANNELS 3 Zrotation Yrotation Xrotation
			JOINT LeftLeg
			{
				OFFSET 2.448110 -6.726130 0.000000
				CHANNELS 3 Zrotation Yrotation Xrotation
				JOINT LeftFoot
				{
					OFFSET 2.562200 -7.039590 0.000000
					CHANNELS 3 Zrotation Yrotation Xrotation
					JOINT LeftToeBase
					{
						OFFSET 0.157640 -0.433110 2.322550
						CHANNELS 3 Zrotation Yrotation Xrotation
						End Site
						{
							OFFSET 0.000000 0.000000 0.000000
						}
					}
				}
			}
		}
	}
	JOINT RHipJoint
	{
		OFFSET 0.000000 0.000000 0.000000
		CHANNELS 3 Zrotation Yrotation Xrotation
		JOINT RightUpLeg
		{
			OFFSET -1.305520 -1.794630 0.839290
			CHANNELS 3 Zrotation Yrotation Xrotation
			JOINT RightLeg
			{
				OFFSET -2.542530 -6.985550 0.000000
				CHANNELS 3 Zrotation Yrotation Xrotation
				JOINT RightFoot
				{
					OFFSET -2.568260 -7.056230 0.000000
					CHANNELS 3 Zrotation Yrotation Xrotation
					JOINT RightToeBase
					{
						OFFSET -0.164730 -0.452590 2.363150
						CHANNELS 3 Zrotation Yrotation Xrotation
						End Site
						{
							OFFSET 0.000000 0.000000 0.000000
						}
					}
				}
			}
		}
	}
	JOINT LowerBack
	{
		OFFSET 0.000000 0.000000 0.000000
		CHANNELS 3 Zrotation Yrotation Xrotation
		JOINT Spine
		{
			OFFSET 0.028270 2.035590 -0.193380
			CHANNELS 3 Zrotation Yrotation Xrotation
			JOINT Spine1
			{
				OFFSET 0.056720 2.048850 -0.042750
				CHANNELS 3 Zrotation Yrotation Xrotation
				JOINT Neck
				{
					OFFSET 0.000000 0.000000 0.000000
					CHANNELS 3 Zrotation Yrotation Xrotation
					JOINT Neck1
					{
						OFFSET -0.054170 1.746240 0.172020
						CHANNELS 3 Zrotation Yrotation Xrotation
						JOINT Head
						{
							OFFSET 0.104070 1.761360 -0.123970
							CHANNELS 3 Zrotation Yrotation Xrotation
							End Site
							{
								OFFSET 0.000000 0.000000 0.000000
							}
						}
					}
				}
				JOINT LeftShoulder
				{
					OFFSET 0.000000 0.000000 0.000000
					CHANNELS 3 Zrotation Yrotation Xrotation
					JOINT LeftArm
					{
						OFFSET 3.362410 1.200890 -0.311210
						CHANNELS 3 Zrotation Yrotation Xrotation
						JOINT LeftForeArm
						{
							OFFSET 4.983000 -0.000000 -0.000000
							CHANNELS 3 Zrotation Yrotation Xrotation
							JOINT LeftHand
							{
								OFFSET 3.483560 -0.000000 -0.000000
								CHANNELS 3 Zrotation Yrotation Xrotation
								JOINT LeftFingerBase
								{
									OFFSET 0.000000 0.000000 0.000000
									CHANNELS 3 Zrotation Yrotation Xrotation
									JOINT LeftHandIndex1
									{
										OFFSET 0.715260 -0.000000 -0.000000
										CHANNELS 3 Zrotation Yrotation Xrotation
										End Site
										{
											OFFSET 0.000000 0.000000 0.000000
										}
									}
								}
								JOINT LThumb
								{
									OFFSET 0.000000 0.000000 0.000000
									CHANNELS 3 Zrotation Yrotation Xrotation
									End Site
									{
										OFFSET 0.000000 0.000000 0.000000
									}
								}
							}
						}
					}
				}
				JOINT RightShoulder
				{
					OFFSET 0.000000 0.000000 0.000000
					CHANNELS 3 Zrotation Yrotation Xrotation
					JOINT RightArm
					{
						OFFSET -3.136600 1.374050 -0.404650
						CHANNELS 3 Zrotation Yrotation Xrotation
						JOINT RightForeArm
						{
							OFFSET -5.241900 -0.000000 -0.000000
							CHANNELS 3 Zrotation Yrotation Xrotation
							JOINT RightHand
							{
								OFFSET -3.444170 -0.000000 -0.000000
								CHANNELS 3 Zrotation Yrotation Xrotation
								JOINT RightFingerBase
								{
									OFFSET 0.000000 0.000000 0.000000
									CHANNELS 3 Zrotation Yrotation Xrotation
									JOINT RightHandIndex1
									{
										OFFSET -0.622530 -0.000000 -0.000000
										CHANNELS 3 Zrotation Yrotation Xrotation
										End Site
										{
											OFFSET 0.000000 0.000000 0.000000
										}
									}
								}
								JOINT RThumb
								{
									OFFSET 0.000000 0.000000 0.000000
									CHANNELS 3 Zrotation Yrotation Xrotation
									End Site
									{
										OFFSET 0.000000 0.000000 0.000000
									}
								}
							}
						}
					}
				}
			}
		}
	}
}
MOTION
Frames: 12
Frame Time: 0.008333
1.051434 16.795949 -0.499727 -159.026147 86.017320 -158.873772 -11.539431 5.386617 -0.429254 -6.173307 12.737707 8.955413 -0.265595 2.773936 33.837150 1.080979 4.145132 13.462776 1.062000 0.000000 -65.635500 9.078554 -0.425033 0.561617 7.616875 -8.844946 -26.743837 2.473697 -0.860081 20.528142 -0.482461 -1.383073 -3.542387 -0.366800 0.000000 -55.539700 3.721920 -5.224038 -1.680643 0.383885 -5.585556 -2.428232 -5.705296 -5.501448 3.111352 10.105611 -22.610792 -11.584150 -1.961862 -0.096074 -0.981783 0.000000 0.000000 0.000000 0.499552 18.278890 0.271550 -39.031116 6.218682 5.340911 -1.134371 -66.676544 -0.015346 6.429156 0.510509 0.022343 -0.176200 0.148646 0.000000 0.000000 0.000000 0.000000 0.000000 0.000000 0.000000 15.248298 -20.814324 0.180549 77.216209 -26.199840 -15.498466 4.870983 20.078280 -0.000040 7.186679 0.279179 0.017031 0.100680 0.007908 -0.000000 0.000000 0.000000 0.000000 0.000000 0.000000 0.000000 
1.312787 16.787479 -0.522045 -159.163904 85.731044 -159.364237 -11.689698 5.424915 -0.497389 -5.456719 13.594344 7.776716 -0.026576 2.906198 37.012330 1.305939 5.202697 15.516918 1.467500 -0.000000 -61.963100 9.182960 -0.539590 0.400188 7.418057 -9.665607 -26.406006 2.372515 -1.059259 22.235544 -0.340405 -0.661336 -2.798251 -0.306401 -0.000000 -55.041800 3.875887 -5.128814 -1.560235 0.399723 -5.495352 -2.425576 -5.724111 -5.412420 3.053309 10.127105 -22.528007 -11.534649 -2.008061 -0.101299 -0.968628 0.000000 0.000000 0.000000 0.308184 18.135419 0.252842 -39.877213 6.789598 5.364145 -1.200385 -65.659487 -0.014853 6.588005 0.628841 0.030452 -0.178565 0.137551 0.000000 0.000000 0.000000 0.000000 0.000000 0.000000 0.000000 15.394954 -20.666006 0.146089 76.865474 -25.592756 -15.359471 4.835855 20.019000 0.000752 6.841145 0.502821 0.029545 0.101749 0.005272 -0.000000 0.000000 0.000000 0.000000 0.000000 0.000000 0.000000 
1.569092 16.777193 -0.546116 -159.164489 85.445149 -159.706614 -11.835728 5.426245 -0.581000 -4.809492 14.438253 6.457711 0.187036 3.021122 40.263665 1.551869 6.636191 17.077671 2.050200 0.000000 -56.952000 9.275282 -0.647436 0.220971 7.240354 -10.623854 -26.037725 2.283144 -1.226602 23.805634 -0.225327 -0.006789 -2.257420 -0.234100 0.000000 -54.147100 4.028336 -5.016643 -1.401820 0.411194 -5.386555 -2.418166 -5.752233 -5.304693 2.989653 10.178621 -22.414133 -11.500773 -2.053603 -0.106150 -0.960140 0.000000 0.000000 0.000000 0.122337 17.977114 0.238578 -40.826331 7.357215 5.401095 -1.272693 -64.578777 -0.014143 6.697456 0.741491 0.038454 -0.180126 0.126076 0.000000 0.000000 0.000000 0.000000 0.000000 0.000000 0.000000 15.551365 -20.476575 0.125524 76.525430 -24.841091 -15.248770 4.791244 19.938495 0.001557 6.420840 0.722245 0.039960 0.103051 0.002315 -0.000000 0.000000 0.000000 0.000000 0.000000 0.000000 0.000000 
1.820173 16.765199 -0.571673 -159.062461 85.163790 -159.912538 -11.973160 5.394452 -0.678690 -4.257958 15.250533 4.988638 0.372865 3.127737 43.541945 1.802858 8.387606 18.028042 2.779700 -0.000001 -50.923300 9.352276 -0.748114 0.042802 7.071101 -11.617306 -25.645052 2.207030 -1.362688 25.236801 -0.142096 0.532759 -1.979156 -0.163900 -0.000000 -52.798700 4.174601 -4.888119 -1.223721 0.418302 -5.259781 -2.408741 -5.788119 -5.179017 2.923265 10.257545 -22.271145 -11.482480 -2.097410 -0.110555 -0.956181 0.000000 0.000000 0.000000 -0.048623 17.814160 0.229347 -41.878992 7.909592 5.445312 -1.351235 -63.431110 -0.013297 6.746634 0.877867 0.047650 -0.180859 0.114123 0.000000 0.000000 0.000000 0.000000 0.000000 0.000000 0.000000 15.713075 -20.248429 0.117273 76.184710 -23.949130 -15.071368 4.736942 19.835487 0.002400 5.909746 0.962211 0.049077 0.104668 -0.000900 -0.000000 0.000000 0.000000 0.000000 0.000000 0.000000 0.000000 
2.065978 16.751770 -0.598956 -158.885363 84.891346 -160.008112 -12.098326 5.334943 -0.788777 -3.823292 16.004387 3.403846 0.533410 3.234173 46.763266 2.046247 10.346689 18.346112 3.581800 0.000000 -44.788200 9.413172 -0.841620 -0.130907 6.902858 -12.598783 -25.201675 2.148031 -1.468496 26.501977 -0.087009 0.953893 -1.980147 -0.104600 0.000000 -51.150100 4.318614 -4.743079 -1.028527 0.422132 -5.115139 -2.397614 -5.831215 -5.035509 2.854314 10.353665 -22.088215 -11.476995 -2.140971 -0.114691 -0.956075 0.000000 0.000000 0.000000 -0.213555 17.657010 0.225731 -43.018618 8.429925 5.505189 -1.436307 -62.210444 -0.012319 6.742353 1.016690 0.056736 -0.180848 0.101916 0.000000 0.000000 0.000000 0.000000 0.000000 0.000000 0.000000 15.875123 -19.969358 0.120230 75.853425 -22.938245 -14.897397 4.676344 19.735601 0.003186 5.351978 1.185489 0.054793 0.106414 -0.004310 -0.000000 0.000000 0.000000 0.000000 0.000000 0.000000 0.000000 
2.306830 16.737425 -0.627919 -158.718599 84.630762 -160.066466 -12.207251 5.253166 -0.906320 -3.530615 16.682722 1.707969 0.673918 3.344581 49.873293 2.272920 12.390101 18.037146 4.360000 0.000000 -39.098900 9.460557 -0.927833 -0.290124 6.724157 -13.507030 -24.710015 2.105906 -1.547627 27.605994 -0.058095 1.247727 -2.263754 -0.062300 0.000000 -49.274800 4.453156 -4.582978 -0.830404 0.422304 -4.953964 -2.386879 -5.879036 -4.875666 2.784485 10.460147 -21.866285 -11.481221 -2.184235 -0.118618 -0.958912 0.000000 0.000000 0.000000 -0.369985 17.513159 0.227656 -44.243669 8.913170 5.575696 -1.527936 -60.912153 -0.011282 6.680605 1.173937 0.066415 -0.180104 0.089432 0.000000 0.000000 0.000000 0.000000 0.000000 0.000000 0.000000 16.032773 -19.640734 0.131459 75.516788 -21.821200 -14.659649 4.610564 19.645203 0.003931 4.751232 1.408224 0.057710 0.108284 -0.007869 -0.000000 0.000000 0.000000 0.000000 0.000000 0.000000 0.000000 
2.543229 16.722774 -0.658724 -158.643186 84.383681 -160.162671 -12.296786 5.154375 -1.026600 -3.397952 17.275373 -0.090503 0.799107 3.460017 52.827717 2.475903 14.388655 17.129770 5.010000 -0.000000 -34.157300 9.498550 -1.006811 -0.428696 6.525089 -14.303708 -24.169588 2.079280 -1.603647 28.551290 -0.052063 1.419598 -2.803912 -0.037600 -0.000000 -47.308300 4.572088 -4.409797 -0.640292 0.418432 -4.778212 -2.378319 -5.929669 -4.701577 2.714034 10.568854 -21.599802 -11.489922 -2.228549 -0.122549 -0.963223 0.000000 0.000000 0.000000 -0.519123 17.387443 0.234974 -45.548136 9.360094 5.653710 -1.626086 -59.532922 -0.010236 6.563154 1.354742 0.076687 -0.178662 0.076709 0.000000 0.000000 0.000000 0.000000 0.000000 0.000000 0.000000 16.183873 -19.256885 0.147691 75.163475 -20.621632 -14.340479 4.541758 19.580428 0.004623 4.127837 1.631750 0.057928 0.110206 -0.011540 -0.000000 0.000000 0.000000 0.000000 0.000000 0.000000 0.000000 
2.775743 16.708533 -0.691533 -158.723557 84.150289 -160.358140 -12.364919 5.043015 -1.145177 -3.435191 17.779656 -1.984516 0.911487 3.578592 55.590847 2.650351 16.229212 15.666734 5.440800 -0.000000 -30.028900 9.531529 -1.078869 -0.542106 6.298175 -14.964436 -23.582011 2.065178 -1.639901 29.341813 -0.066017 1.478603 -3.551740 -0.027100 0.000000 -45.407500 4.670601 -4.225919 -0.468083 0.410320 -4.590388 -2.373686 -5.981384 -4.515861 2.642591 10.671693 -21.279710 -11.496630 -2.275684 -0.126752 -0.967194 0.000000 0.000000 0.000000 -0.664295 17.284559 0.247495 -46.924181 9.774521 5.736697 -1.730488 -58.071961 -0.009236 6.394649 1.561677 0.087349 -0.176570 0.063813 0.000000 0.000000 0.000000 0.000000 0.000000 0.000000 0.000000 16.326869 -18.808432 0.165507 74.783317 -19.367630 -13.942575 4.472358 19.560292 0.005254 3.507005 1.853796 0.055748 0.112094 -0.015296 -0.000000 0.000000 0.000000 0.000000 0.000000 0.000000 0.000000 
3.005035 16.695432 -0.726644 -158.996751 83.929007 -160.689993 -12.410741 4.922670 -1.258744 -3.642093 18.200622 -3.965799 1.010407 3.696742 58.134442 2.792538 17.820713 13.688724 5.583200 0.000000 -26.506100 9.563206 -1.144769 -0.627475 6.039229 -15.477492 -22.950669 2.059572 -1.659405 29.982359 -0.097519 1.434829 -4.442811 -0.024900 -0.000000 -43.737500 4.744799 -4.033933 -0.321441 0.398242 -4.393220 -2.374193 -6.030911 -4.321414 2.570579 10.760622 -20.907024 -11.495816 -2.325558 -0.131317 -0.969245 0.000000 0.000000 0.000000 -0.808040 17.206053 0.264424 -48.368574 10.164579 5.816312 -1.840681 -56.528241 -0.008328 6.178180 1.796463 0.098104 -0.173843 0.050871 0.000000 0.000000 0.000000 0.000000 0.000000 0.000000 0.000000 16.454610 -18.297804 0.182188 74.358881 -18.076015 -13.431989 4.404066 19.588387 0.005843 2.898049 2.085300 0.051467 0.113961 -0.019098 -0.000000 0.000000 0.000000 0.000000 0.000000 0.000000 0.000000 
3.231635 16.684138 -0.764367 -159.477110 83.716405 -161.176488 -12.434212 4.795827 -1.364410 -4.010758 18.543915 -6.020747 1.091952 3.809862 60.431202 2.900902 19.103942 11.252554 5.403399 0.000000 -23.341400 9.596337 -1.205489 -0.684770 5.746700 -15.845542 -22.277634 2.057956 -1.664817 30.477210 -0.144147 1.299085 -5.403904 -0.024900 0.000000 -42.453400 4.793316 -3.836563 -0.204804 0.382751 -4.189689 -2.380500 -6.075529 -4.121334 2.498188 10.828993 -20.480880 -11.481943 -2.378173 -0.136332 -0.967803 0.000000 0.000000 0.000000 -0.953323 17.153085 0.285092 -49.875889 10.538686 5.884965 -1.955897 -54.901647 -0.007550 5.919017 2.056567 0.108652 -0.170509 0.038049 0.000000 0.000000 0.000000 0.000000 0.000000 0.000000 0.000000 16.561081 -17.725789 0.195523 73.877322 -16.764335 -12.804015 4.338562 19.669275 0.006405 2.313468 2.329598 0.045487 0.115804 -0.022910 -0.000000 0.000000 0.000000 0.000000 0.000000 0.000000 0.000000 
3.456079 16.675253 -0.805014 -160.164114 83.507611 -161.823622 -12.435870 4.663765 -1.458699 -4.528734 18.811216 -8.127953 1.150165 3.912382 62.450784 2.977609 20.059811 8.470702 4.920200 -0.000000 -20.623900 9.632842 -1.261914 -0.716797 5.419299 -16.083924 -21.562771 2.055931 -1.658426 30.829673 -0.203212 1.082555 -6.361948 -0.022000 -0.000000 -41.676299 4.816416 -3.636658 -0.119898 0.364263 -3.982959 -2.393090 -6.114091 -3.918836 2.424180 10.872189 -19.992207 -11.448678 -2.434537 -0.141977 -0.961100 0.000000 0.000000 0.000000 -1.103553 17.124107 0.309563 -51.435536 10.908233 5.937342 -2.074968 -53.195412 -0.006919 5.624323 2.336640 0.118092 -0.166608 0.025502 0.000000 0.000000 0.000000 0.000000 0.000000 0.000000 0.000000 16.644086 -17.084312 0.204007 73.332140 -15.459660 -12.101228 4.277564 19.815213 0.006933 1.774002 2.579011 0.038109 0.117566 -0.026712 -0.000000 0.000000 0.000000 0.000000 0.000000 0.000000 0.000000 
3.678675 16.669243 -0.848791 -161.032900 83.296450 -162.617182 -12.416562 4.527774 -1.541313 -5.173430 19.014044 -10.264761 1.177393 4.000935 64.175265 3.023343 20.678902 5.401837 4.162999 0.000000 -17.870900 9.673559 -1.315482 -0.728387 5.057672 -16.217906 -20.802681 2.050086 -1.642253 31.042769 -0.271479 0.798256 -7.253330 -0.013099 0.000000 -41.470299 4.814376 -3.436676 -0.063274 0.343837 -3.775533 -2.410532 -6.142445 -3.716513 2.351514 10.887439 -19.460710 -11.395810 -2.491014 -0.147919 -0.949042 0.000000 0.000000 0.000000 -1.258746 17.119532 0.336630 -53.046259 11.274193 5.962876 -2.196761 -51.404222 -0.006449 5.297175 2.630029 0.125924 -0.162161 0.013476 -0.000000 0.000000 0.000000 0.000000 0.000000 0.000000 0.000000 16.691917 -16.398253 0.207538 72.708621 -14.151533 -11.283146 4.221033 20.004254 0.007461 1.268273 2.845501 0.029232 0.119367 -0.030440 -0.000000 0.000000 0.000000 0.000000 0.000000 0.000000 0.000000 
